<svg id="visual" viewBox="0 0 960 540" width="960" height="540" xmlns="http://www.w3.org/2000/svg" xmlns:xlink="http://www.w3.org/1999/xlink" version="1.1"><rect x="0" y="0" width="960" height="540" fill="#001220"></rect><path d="M0 243L14.5 251.3C29 259.7 58 276.3 87.2 274C116.3 271.7 145.7 250.3 174.8 247.8C204 245.3 233 261.7 262 260.7C291 259.7 320 241.3 349 228.3C378 215.3 407 207.7 436.2 214.8C465.3 222 494.7 244 523.8 250.8C553 257.7 582 249.3 611 253.5C640 257.7 669 274.3 698 273.3C727 272.3 756 253.7 785.2 252C814.3 250.3 843.7 265.7 872.8 273.8C902 282 931 283 945.5 283.5L960 284L960 541L945.5 541C931 541 902 541 872.8 541C843.7 541 814.3 541 785.2 541C756 541 727 541 698 541C669 541 640 541 611 541C582 541 553 541 523.8 541C494.7 541 465.3 541 436.2 541C407 541 378 541 349 541C320 541 291 541 262 541C233 541 204 541 174.8 541C145.7 541 116.3 541 87.2 541C58 541 29 541 14.5 541L0 541Z" fill="#69dbfa"></path><path d="M0 284L14.5 291C29 298 58 312 87.2 311.2C116.3 310.3 145.7 294.7 174.8 293.8C204 293 233 307 262 304.7C291 302.3 320 283.7 349 286.5C378 289.3 407 313.7 436.2 314C465.3 314.3 494.7 290.7 523.8 279.5C553 268.3 582 269.7 611 271.2C640 272.7 669 274.3 698 278C727 281.7 756 287.3 785.2 296.2C814.3 305 843.7 317 872.8 322.5C902 328 931 327 945.5 326.5L960 326L960 541L945.5 541C931 541 902 541 872.8 541C843.7 541 814.3 541 785.2 541C756 541 727 541 698 541C669 541 640 541 611 541C582 541 553 541 523.8 541C494.7 541 465.3 541 436.2 541C407 541 378 541 349 541C320 541 291 541 262 541C233 541 204 541 174.8 541C145.7 541 116.3 541 87.2 541C58 541 29 541 14.5 541L0 541Z" fill="#44c5f4"></path><path d="M0 374L14.5 363.7C29 353.3 58 332.7 87.2 323.8C116.3 315 145.7 318 174.8 326.5C204 335 233 349 262 348.7C291 348.3 320 333.7 349 336.5C378 339.3 407 359.7 436.2 358.5C465.3 357.3 494.7 334.7 523.8 333.8C553 333 582 354 611 362.3C640 370.7 669 366.3 698 362.3C727 358.3 756 354.7 785.2 352.2C814.3 349.7 843.7 348.3 872.8 339.3C902 330.3 931 313.7 945.5 305.3L960 297L960 541L945.5 541C931 541 902 541 872.8 541C843.7 541 814.3 541 785.2 541C756 541 727 541 698 541C669 541 640 541 611 541C582 541 553 541 523.8 541C494.7 541 465.3 541 436.2 541C407 541 378 541 349 541C320 541 291 541 262 541C233 541 204 541 174.8 541C145.7 541 116.3 541 87.2 541C58 541 29 541 14.5 541L0 541Z" fill="#1bafec"></path><path d="M0 379L14.5 383.5C29 388 58 397 87.2 394.3C116.3 391.7 145.7 377.3 174.8 376.2C204 375 233 387 262 387.7C291 388.3 320 377.7 349 371.2C378 364.7 407 362.3 436.2 367.8C465.3 373.3 494.7 386.7 523.8 385.7C553 384.7 582 369.3 611 368C640 366.7 669 379.3 698 385.5C727 391.7 756 391.3 785.2 384.5C814.3 377.7 843.7 364.3 872.8 360.8C902 357.3 931 363.7 945.5 366.8L960 370L960 541L945.5 541C931 541 902 541 872.8 541C843.7 541 814.3 541 785.2 541C756 541 727 541 698 541C669 541 640 541 611 541C582 541 553 541 523.8 541C494.7 541 465.3 541 436.2 541C407 541 378 541 349 541C320 541 291 541 262 541C233 541 204 541 174.8 541C145.7 541 116.3 541 87.2 541C58 541 29 541 14.5 541L0 541Z" fill="#0099e3"></path><path d="M0 459L14.5 454.7C29 450.3 58 441.7 87.2 439.3C116.3 437 145.7 441 174.8 436.5C204 432 233 419 262 416.8C291 414.7 320 423.3 349 432.2C378 441 407 450 436.2 453.5C465.3 457 494.7 455 523.8 445.3C553 435.7 582 418.3 611 419.8C640 421.3 669 441.7 698 449.5C727 457.3 756 452.7 785.2 445.5C814.3 438.3 843.7 428.7 872.8 422.5C902 416.3 931 413.7 945.5 412.3L960 411L960 541L945.5 541C931 541 902 541 872.8 541C843.7 541 814.3 541 785.2 541C756 541 727 541 698 541C669 541 640 541 611 541C582 541 553 541 523.8 541C494.7 541 465.3 541 436.2 541C407 541 378 541 349 541C320 541 291 541 262 541C233 541 204 541 174.8 541C145.7 541 116.3 541 87.2 541C58 541 29 541 14.5 541L0 541Z" fill="#0081d7"></path><path d="M0 493L14.5 486.7C29 480.3 58 467.7 87.2 461.5C116.3 455.3 145.7 455.7 174.8 461.5C204 467.3 233 478.7 262 480.7C291 482.7 320 475.3 349 471.8C378 468.3 407 468.7 436.2 473.2C465.3 477.7 494.7 486.3 523.8 488.8C553 491.3 582 487.7 611 482.3C640 477 669 470 698 472.5C727 475 756 487 785.2 488C814.3 489 843.7 479 872.8 477.5C902 476 931 483 945.5 486.5L960 490L960 541L945.5 541C931 541 902 541 872.8 541C843.7 541 814.3 541 785.2 541C756 541 727 541 698 541C669 541 640 541 611 541C582 541 553 541 523.8 541C494.7 541 465.3 541 436.2 541C407 541 378 541 349 541C320 541 291 541 262 541C233 541 204 541 174.8 541C145.7 541 116.3 541 87.2 541C58 541 29 541 14.5 541L0 541Z" fill="#2469c7"></path></svg>